<svg xmlns="http://www.w3.org/2000/svg" xmlns:xlink="http://www.w3.org/1999/xlink" viewBox="0,0,256,256" width="24px" height="24px" fill-rule="nonzero"><g fill="#ffffff" fill-rule="nonzero" stroke="none" stroke-width="1" stroke-linecap="butt" stroke-linejoin="miter" stroke-miterlimit="10" stroke-dasharray="" stroke-dashoffset="0" font-family="none" font-weight="none" font-size="none" text-anchor="none" style="mix-blend-mode: normal"><g transform="scale(10.66667,10.66667)"><path d="M7,1v2h2v-2zM11,1v2h2v-2zM15,1v2h2v-2zM7,5c-1.09306,0 -2,0.90694 -2,2v10c0,1.09306 0.90694,2 2,2h10c1.09306,0 2,-0.90694 2,-2v-10c0,-1.09306 -0.90694,-2 -2,-2zM1,7v2h2v-2zM7,7h10v10h-10zM21,7v2h2v-2zM9,8c-0.55228,0 -1,0.44772 -1,1c0,0.55228 0.44772,1 1,1c0.55228,0 1,-0.44772 1,-1c0,-0.55228 -0.44772,-1 -1,-1zM1,11v2h2v-2zM21,11v2h2v-2zM15,14c-0.55228,0 -1,0.44772 -1,1c0,0.55228 0.44772,1 1,1c0.55228,0 1,-0.44772 1,-1c0,-0.55228 -0.44772,-1 -1,-1zM1,15v2h2v-2zM21,15v2h2v-2zM7,21v2h2v-2zM11,21v2h2v-2zM15,21v2h2v-2z"></path></g></g></svg>