<svg width="428" height="635" viewBox="0 0 428 635" fill="none" xmlns="http://www.w3.org/2000/svg">
<path d="M149.629 384.951C152.282 378.231 154.337 372.94 156.477 367.65C157.418 365.22 158.189 362.789 159.473 360.501C163.582 352.923 173.169 349.349 183.27 351.494C193.199 353.638 198.849 360.787 196.195 368.508C192.686 378.659 188.577 388.525 184.896 398.677C181.301 408.542 177.877 418.408 174.538 428.416C172.398 434.707 165.037 439.14 155.878 438.997C152.368 438.997 148.944 438.425 145.691 437.424C118.299 429.989 91.0784 422.268 63.6864 414.69C57.6944 412.974 52.7296 410.687 50.076 406.254C44.8544 397.39 53.6712 387.381 67.196 387.381C71.3904 387.381 75.6704 388.382 79.608 389.383C90.2224 392.1 100.666 395.102 111.28 398.105C112.393 398.248 113.506 398.391 114.618 398.534C113.762 396.675 113.249 395.102 112.393 393.529C102.463 376.515 98.0976 358.214 99.724 339.769C102.72 301.594 135.847 272.283 187.293 262.275C207.922 258.271 229.066 256.841 250.38 256.555C291.297 255.984 332.128 257.127 372.702 260.845C377.753 261.274 382.974 261.274 387.854 262.132C394.702 263.133 399.752 267.279 400.351 272.283C401.293 278.717 396.071 284.293 387.169 285.437C381.434 286.152 375.442 286.009 369.535 286.009C331.101 285.437 292.666 284.722 254.232 284.436C235.657 284.293 217.167 285.437 199.106 288.869C161.955 295.732 140.213 315.034 138.501 342.629C137.816 354.353 139.699 365.791 145.092 376.801C146.205 379.088 147.66 381.376 149.629 384.951Z" fill="#006E49"/>
</svg>
