<svg fill="#000000" xmlns="http://www.w3.org/2000/svg"  viewBox="0 0 50 50" width="50px" height="50px"><path d="M 25 2 C 12.316406 2 2 12.316406 2 25 C 2 37.683594 12.316406 48 25 48 C 37.683594 48 48 37.683594 48 25 C 48 12.316406 37.683594 2 25 2 Z M 35.707031 22.707031 L 25.707031 32.707031 C 25.511719 32.902344 25.257813 33 25 33 C 24.742188 33 24.488281 32.902344 24.292969 32.707031 L 14.292969 22.707031 C 13.902344 22.316406 13.902344 21.683594 14.292969 21.292969 C 14.683594 20.902344 15.316406 20.902344 15.707031 21.292969 L 25 30.585938 L 34.292969 21.292969 C 34.683594 20.902344 35.316406 20.902344 35.707031 21.292969 C 36.097656 21.683594 36.097656 22.316406 35.707031 22.707031 Z"/></svg>