<?xml version="1.0" encoding="UTF-8"?>
<svg id="Layer_1" data-name="Layer 1" xmlns="http://www.w3.org/2000/svg" width="203.89" height="255.41" viewBox="0 0 203.89 255.41">
  <defs>
    <style>
      .cls-1 {
        fill: #00984a;
        fill-rule: evenodd;
      }
    </style>
  </defs>
  <path class="cls-1" d="M183.24,41.29c-11.4,0-21.81-9.24-21.81-20.65S171.84,0,183.24,0s20.64,9.24,20.64,20.64-9.24,20.65-20.64,20.65ZM163.8,136.27l-.63-89.79h40.46l.26,208.94h-40.08L55.86,95.35l-18.99-33.37,1.76,56.7.11,87.81,48.86-29.88,16.82,27.51-79.5,48.62c-7.75,4.74-17.88,2.3-22.62-5.45-1.86-3.04-2.55-6.45-2.23-9.75,0-.06,0-.12,0-1.34V.01l38.56.24,108.65,160.06,18.28,33.02-1.76-57.06Z"/>
</svg>