<svg width="45" height="45" viewBox="0 0 45 45" fill="none" xmlns="http://www.w3.org/2000/svg">
<path d="M36.0076 36.0076C28.6858 43.3295 16.8133 43.3295 9.4914 36.0076C2.16953 28.6858 2.16953 16.8133 9.4914 9.4914C16.8133 2.16953 28.6858 2.16953 36.0076 9.4914C43.3295 16.8133 43.3295 28.6858 36.0076 36.0076Z" fill="url(#paint0_linear_603_101890)" fill-opacity="0.5"/>
<path opacity="0.05" d="M26.4995 22.7495V15.2495C26.4995 14.2136 25.6605 13.3745 24.6245 13.3745H20.8745C19.8386 13.3745 18.9995 14.2136 18.9995 15.2495V22.7495H15.5795C14.327 22.7495 13.6989 24.2645 14.5849 25.1504L21.4239 31.9895C22.1561 32.7217 23.343 32.7217 24.0752 31.9895L30.9142 25.1504C31.8002 24.2645 31.173 22.7495 29.9195 22.7495H26.4995Z" fill="#8F8B8B"/>
<path opacity="0.07" d="M26.0308 23.2183V15.2495C26.0308 14.4733 25.4008 13.8433 24.6246 13.8433H20.8746C20.0983 13.8433 19.4683 14.4733 19.4683 15.2495V23.2183H15.6986C14.8193 23.2183 14.3786 24.2814 15.0002 24.9039L21.6836 31.5883C22.2714 32.1761 23.2249 32.1761 23.8127 31.5883L30.4961 24.9039C31.1177 24.2823 30.678 23.2183 29.7977 23.2183H26.0308Z" fill="#8F8B8B"/>
<path d="M26.8702 23.7643H24.1245V18.1393C24.1245 17.7943 23.8445 17.5143 23.4995 17.5143H20.9995C20.6545 17.5143 20.3745 17.7943 20.3745 18.1393V23.7643H17.6289C17.2914 23.7643 17.1226 24.1724 17.3614 24.4106L21.7139 28.7631C22.0095 29.0587 22.4895 29.0587 22.7851 28.7631L27.1377 24.4106C27.3764 24.1724 27.2077 23.7643 26.8702 23.7643Z" fill="white"/>
<defs>
<linearGradient id="paint0_linear_603_101890" x1="22.7417" y1="3.99429" x2="22.7417" y2="41.4939" gradientUnits="userSpaceOnUse">
<stop stop-color="#006E49"/>
<stop offset="1" stop-color="#00D48D"/>
</linearGradient>
</defs>
</svg>
