<?xml version="1.0" encoding="UTF-8"?>
<svg id="Layer_1" xmlns="http://www.w3.org/2000/svg" version="1.1" viewBox="0 0 44.9 44.9">
  <!-- Generator: Adobe Illustrator 29.4.0, SVG Export Plug-In . SVG Version: 2.1.0 Build 152)  -->
  <defs>
    <style>
      .st0 {
        fill: #006e49;
      }

      .st1 {
        fill: #fff;
      }

      .st2 {
        fill: #e5e8ec;
      }

      .st3 {
        display: none;
      }
    </style>
  </defs>
  <g id="Square" class="st3">
    <rect class="st2" x="-1.3" y="-1.4" width="48" height="48"/>
  </g>
  <g id="Icons">
    <g>
      <path class="st0" d="M22.4,0C10.1,0,0,10.1,0,22.4s1.4,8.9,3.8,12.5l-2.6,9.5,9.9-2.6c3.3,1.9,7.2,3.1,11.3,3.1,12.4,0,22.4-10.1,22.4-22.4.1-12.4-10-22.5-22.4-22.5Z"/>
      <g>
        <path class="st1" d="M26.5,29.7h-12.8c-.7,0-1.3-.6-1.3-1.3v-11.9c0-.7.6-1.3,1.3-1.3h12.7c.7,0,1.3.6,1.3,1.3v11.9c0,.7-.5,1.3-1.2,1.3Z"/>
        <polyline class="st1" points="27.5 19.8 32.5 17.2 32.5 22.4 32.5 27.7 27.5 25.1"/>
      </g>
    </g>
  </g>
</svg>