<svg width="20" height="19" viewBox="0 0 20 19" fill="none" xmlns="http://www.w3.org/2000/svg">
<path d="M6.8692 0.71875C6.75006 0.71875 6.63287 0.765686 6.54694 0.859436L4.20319 3.20319C4.01569 3.39069 4.01569 3.68744 4.20319 3.85931C4.39069 4.04681 4.68744 4.04681 4.85931 3.85931L6.40625 2.31238V7.4375C6.40625 7.70312 6.60938 7.90625 6.875 7.90625C7.14062 7.90625 7.34375 7.70312 7.34375 7.4375V2.31238L8.89069 3.85931C8.98444 3.95306 9.10938 4 9.21875 4C9.32812 4 9.45306 3.95306 9.54681 3.85931C9.73431 3.67181 9.73431 3.37506 9.54681 3.20319L7.20306 0.859436C7.10931 0.765686 6.98834 0.71875 6.8692 0.71875ZM0.625 3.84375C0.359375 3.84375 0.15625 4.04688 0.15625 4.3125V15.25C0.15625 17.2344 1.76562 18.8438 3.75 18.8438H14.6875C14.9531 18.8438 15.1562 18.6406 15.1562 18.375C15.1562 18.1094 14.9531 17.9062 14.6875 17.9062H3.75C2.28125 17.9062 1.09375 16.7188 1.09375 15.25V4.3125C1.09375 4.04688 0.890625 3.84375 0.625 3.84375ZM14.6817 3.84375C14.5626 3.84375 14.4454 3.89069 14.3594 3.98444L4.98444 13.3594C4.79694 13.5469 4.79694 13.8437 4.98444 14.0156C5.07819 14.1093 5.1875 14.1562 5.3125 14.1562C5.4375 14.1562 5.54681 14.1093 5.64056 14.0156L15.0156 4.64056C15.2031 4.45306 15.2031 4.15631 15.0156 3.98444C14.9218 3.89069 14.8008 3.84375 14.6817 3.84375ZM13.5938 10.1719C12.2188 10.1719 11.0938 11.2969 11.0938 12.6719C11.0938 14.0469 12.2188 15.1719 13.5938 15.1719C14.9688 15.1719 16.0938 14.0469 16.0938 12.6719C16.0938 11.2969 14.9688 10.1719 13.5938 10.1719ZM13.5938 11.1094C14.4531 11.1094 15.1562 11.8125 15.1562 12.6719C15.1562 13.5312 14.4531 14.2344 13.5938 14.2344C12.7344 14.2344 12.0312 13.5312 12.0312 12.6719C12.0312 11.8125 12.7344 11.1094 13.5938 11.1094ZM17.8125 17.9062C17.5469 17.9062 17.3438 18.1094 17.3438 18.375C17.3438 18.6406 17.5469 18.8438 17.8125 18.8438H19.375C19.6406 18.8438 19.8438 18.6406 19.8438 18.375C19.8438 18.1094 19.6406 17.9062 19.375 17.9062H17.8125Z" fill="#FFFCFC"/>
</svg>
