<svg xmlns="http://www.w3.org/2000/svg" xmlns:xlink="http://www.w3.org/1999/xlink" viewBox="0,0,256,256" width="48px" height="48px" fill-rule="nonzero"><g fill="#ffffff" fill-rule="nonzero" stroke="none" stroke-width="1" stroke-linecap="butt" stroke-linejoin="miter" stroke-miterlimit="10" stroke-dasharray="" stroke-dashoffset="0" font-family="none" font-weight="none" font-size="none" text-anchor="none" style="mix-blend-mode: normal"><g transform="scale(5.33333,5.33333)"><path d="M15.61328,6.12695c-1.981,-0.001 -3.61328,1.62933 -3.61328,3.61133v5.3125h-4.38672c-1.982,0 -3.61328,1.63128 -3.61328,3.61328v18.71094c0,1.982 1.63128,3.61328 3.61328,3.61328l24.64844,0.01172c1.982,0 3.61328,-1.63128 3.61328,-3.61328v-5.31445l4.38672,0.00195c1.982,0 3.61328,-1.63128 3.61328,-3.61328v-14.69531c0,-1.982 -1.63128,-3.625 -3.61328,-3.625h-12.16406l-3.58984,-2.99023h-0.00195c-0.794,-0.661 -1.79217,-1.02344 -2.82617,-1.02344zM15.61328,9.125h6.06641c0.33,0 0.65125,0.11708 0.90625,0.33008l4.42383,3.68555h13.25c0.321,0 0.61328,0.298 0.61328,0.625v14.69531h0.00195c0,0.327 -0.28628,0.61328 -0.61328,0.61328l-4.38672,-0.00195v-6.38281c0,-1.982 -1.63128,-3.625 -3.61328,-3.625h-12.16406l-3.58984,-2.99023h-0.00195c-0.446,-0.372 -0.96086,-0.63659 -1.50586,-0.80859v-5.52734c0,-0.327 0.28628,-0.61328 0.61328,-0.61328zM7.61328,18.05078h4.38672h1.67969c0.33,0 0.6532,0.11708 0.9082,0.33008l0.41211,0.34375l4.01172,3.3418h13.25c0.321,0 0.61328,0.298 0.61328,0.625v6.38086v3v5.31445c0,0.327 -0.28628,0.61328 -0.61328,0.61328l-24.64648,-0.01172c-0.328,0 -0.61523,-0.28628 -0.61523,-0.61328v-18.71094c0,-0.327 0.28628,-0.61328 0.61328,-0.61328zM21.60938,24.00586c-0.3825,-0.03213 -0.77725,0.08261 -1.09375,0.34961c-0.633,0.535 -0.71173,1.48028 -0.17773,2.11328c0.016,0.019 0.03378,0.03864 0.05078,0.05664l1.78125,2.00391h-8.64844c-0.828,-0.012 -1.51144,0.65051 -1.52344,1.47852c0.001,0.015 0.00195,0.02992 0.00195,0.04492c0.013,0.828 0.69448,1.48756 1.52148,1.47656h8.64844l-1.78125,2.00391c-0.239,0.261 -0.37953,0.59817 -0.39453,0.95117c-0.034,0.828 0.61145,1.52655 1.43945,1.56055c0.457,0.019 0.89827,-0.17253 1.19727,-0.51953l4,-4.5c0.505,-0.568 0.505,-1.42419 0,-1.99219l-4,-4.5c-0.2675,-0.3165 -0.63898,-0.49522 -1.02148,-0.52734z"></path></g></g></svg>