<svg xmlns="http://www.w3.org/2000/svg" xmlns:xlink="http://www.w3.org/1999/xlink" viewBox="0,0,256,256" width="24px" height="24px" fill-rule="nonzero"><g fill="#ffffff" fill-rule="nonzero" stroke="none" stroke-width="1" stroke-linecap="butt" stroke-linejoin="miter" stroke-miterlimit="10" stroke-dasharray="" stroke-dashoffset="0" font-family="none" font-weight="none" font-size="none" text-anchor="none" style="mix-blend-mode: normal"><g transform="scale(10.66667,10.66667)"><path d="M12,1c-1.304,0 -2.40341,0.837 -2.81641,2h-4.18359c-1.105,0 -2,0.895 -2,2v14c0,1.105 0.895,2 2,2h14c1.105,0 2,-0.895 2,-2v-14c0,-1.105 -0.895,-2 -2,-2h-4.18359c-0.413,-1.163 -1.51241,-2 -2.81641,-2zM12,3c0.552,0 1,0.448 1,1c0,0.552 -0.448,1 -1,1h7v14h-14v-14h7c-0.552,0 -1,-0.448 -1,-1c0,-0.552 0.448,-1 1,-1zM15.29297,8.29297l-4.29297,4.29297l-2.29297,-2.29297l-1.41406,1.41406l3.70703,3.70703l5.70703,-5.70703z"></path></g></g></svg>