<svg xmlns="http://www.w3.org/2000/svg" xmlns:xlink="http://www.w3.org/1999/xlink" viewBox="0,0,256,256" width="50px" height="50px" fill-rule="nonzero"><g fill="#fffcfc" fill-rule="nonzero" stroke="none" stroke-width="1" stroke-linecap="butt" stroke-linejoin="miter" stroke-miterlimit="10" stroke-dasharray="" stroke-dashoffset="0" font-family="none" font-weight="none" font-size="none" text-anchor="none" style="mix-blend-mode: normal"><g transform="scale(5.12,5.12)"><path d="M7,2v46h26.96094c-0.56,-0.59 -1.12016,-1.26 -1.66016,-2h-23.30078v-42h20v12h12v10.07031c0.75,0.08 1.4,0.26977 2,0.50977v-11.99023l-12.58984,-12.58984zM31,5.41016l8.58984,8.58984h-8.58984zM15,24v2h20v-2zM40,28c-1.5,0 -2.49922,0.49961 -3.69922,1.09961c-1.2,0.6 -2.7,1.30039 -5.5,1.90039l-0.80078,0.19922v0.80078c0,13 9.2,17.70039 9.5,17.90039l0.5,0.19922l0.5,-0.19922c0.4,-0.2 9.5,-5.30039 9.5,-17.90039v-0.80078l-0.80078,-0.19922c-2.8,-0.6 -4.3,-1.30039 -5.5,-1.90039c-1.2,-0.6 -2.19922,-1.09961 -3.69922,-1.09961zM15,30v2h13v-2zM40,30c1.1,0 1.70078,0.30039 2.80078,0.90039c1.2,0.5 2.69922,1.30039 5.19922,1.90039c-0.3,9.3 -6.3,13.9 -8,15c-1.8,-1 -7.7,-5.3 -8,-15c2.6,-0.6 4.09922,-1.40039 5.19922,-1.90039c1.1,-0.6 1.70078,-0.90039 2.80078,-0.90039zM15,36v2h13.66992c-0.16,-0.64 -0.28086,-1.31 -0.38086,-2z"></path></g></g></svg>