<svg xmlns="http://www.w3.org/2000/svg" xmlns:xlink="http://www.w3.org/1999/xlink" viewBox="0,0,256,256" width="80px" height="80px" fill-rule="nonzero"><g fill="#fffcfc" fill-rule="nonzero" stroke="none" stroke-width="1" stroke-linecap="butt" stroke-linejoin="miter" stroke-miterlimit="10" stroke-dasharray="" stroke-dashoffset="0" font-family="none" font-weight="none" font-size="none" text-anchor="none" style="mix-blend-mode: normal"><g transform="scale(3.2,3.2)"><path d="M40.00781,6c-0.17274,-0.00171 -0.34299,0.04135 -0.49414,0.125l-11.86133,6.58984c-0.44846,0.16572 -0.7169,0.62568 -0.64062,1.09766v13.16797c0.00029,0.36262 0.19683,0.69668 0.51367,0.87305l11.86719,6.5957c0.35695,0.27173 0.85116,0.27253 1.20898,0.00195l11.87305,-6.59766c0.31684,-0.17637 0.51339,-0.51043 0.51367,-0.87305v-13.32031c0.00002,-0.00325 0.00002,-0.00651 0,-0.00976c-0.00031,-0.01499 -0.00097,-0.02996 -0.00195,-0.04492c-0.00121,-0.02219 -0.00317,-0.04434 -0.00586,-0.06641c0.00001,-0.00195 0.00001,-0.00391 0,-0.00586c-0.00126,-0.00522 -0.00256,-0.01043 -0.00391,-0.01562c-0.00302,-0.02422 -0.00693,-0.04833 -0.01172,-0.07227c-0.00063,-0.00326 -0.00129,-0.00651 -0.00195,-0.00976c-0.00565,-0.02367 -0.01217,-0.04712 -0.01953,-0.07031c-0.00249,-0.0085 -0.0051,-0.01696 -0.00781,-0.02539c-0.00763,-0.02309 -0.0161,-0.04589 -0.02539,-0.06836c-0.00065,-0.00065 -0.0013,-0.0013 -0.00195,-0.00195c-0.00904,-0.02116 -0.01882,-0.04201 -0.0293,-0.0625c-0.00377,-0.00917 -0.00768,-0.01829 -0.01172,-0.02734c-0.00445,-0.00787 -0.00901,-0.01569 -0.01367,-0.02344c-0.01229,-0.02064 -0.02532,-0.04084 -0.03906,-0.06055c-0.00065,-0.0013 -0.0013,-0.00261 -0.00195,-0.00391c-0.01308,-0.01803 -0.02676,-0.03562 -0.04102,-0.05274c-0.00574,-0.0079 -0.0116,-0.01571 -0.01758,-0.02344c-0.00577,-0.00659 -0.01163,-0.0131 -0.01758,-0.01953c-0.00259,-0.00262 -0.00519,-0.00522 -0.00781,-0.00781c-0.01867,-0.021 -0.03822,-0.0412 -0.05859,-0.06055c-0.0013,-0.00131 -0.0026,-0.00261 -0.00391,-0.00391c-0.01766,-0.01628 -0.0359,-0.03191 -0.05469,-0.04687c-0.0013,-0.00131 -0.0026,-0.00261 -0.00391,-0.00391c-0.02516,-0.01946 -0.05123,-0.03771 -0.07812,-0.05469c-0.01787,-0.01165 -0.03611,-0.02272 -0.05469,-0.0332l-0.00586,-0.00391c-0.01604,-0.00891 -0.03232,-0.01738 -0.04883,-0.02539l-11.93359,-6.63086c-0.14652,-0.08107 -0.31106,-0.12405 -0.47852,-0.125zM40,8.14453l9.9082,5.50391l-9.9082,5.36914l-9.91016,-5.36914zM29.01172,15.33984l9.98828,5.41016v11.19141l-9.98828,-5.54883zM50.98828,15.33984v11.05273l-9.98828,5.54883v-11.19141zM54.57813,20.09375l-0.80078,0.40039l-0.1582,0.88281l0.61133,0.6543l0.34766,0.0625l0.80078,-0.40234l0.1582,-0.88281l-0.61328,-0.6543zM24.51563,20.5957l-0.80078,0.40234l-0.1582,0.88281l0.61133,0.6543l0.34766,0.06055l0.80078,-0.40039l0.1582,-0.88281l-0.61133,-0.6543zM58.07422,22.03516l-0.80078,0.40234l-0.1582,0.88086l0.61133,0.6543l0.34766,0.0625l0.80078,-0.40039l0.1582,-0.88281l-0.61133,-0.6543zM21.01953,22.53906l-0.80273,0.40234l-0.15625,0.88086l0.61133,0.6543l0.34766,0.0625l0.80078,-0.40039l0.1582,-0.88281l-0.61328,-0.6543zM61.57031,23.97852l-0.80078,0.40039l-0.1582,0.88281l0.61328,0.6543l0.3457,0.0625l0.80078,-0.40234l0.1582,-0.88086l-0.61133,-0.6543zM17.52148,24.48242l-0.80078,0.40039l-0.1582,0.88281l0.61328,0.6543l0.3457,0.0625l0.80273,-0.40234l0.15625,-0.88086l-0.61133,-0.6543zM65.06836,25.91992l-0.80273,0.40234l-0.15625,0.88281l0.61133,0.6543l0.34766,0.06055l0.80078,-0.40039l0.1582,-0.88281l-0.61328,-0.6543zM14.02539,26.42383l-0.80078,0.40234l-0.1582,0.88281l0.61133,0.6543l0.34766,0.06055l0.80078,-0.40039l0.1582,-0.88281l-0.61133,-0.6543zM66.97461,28.79883l-0.80078,0.40234l-0.1582,0.88086l0.61133,0.6543l0.34766,0.0625l0.80078,-0.40039l0.1582,-0.88281l-0.61328,-0.6543zM13.02539,29.83594l-0.80078,0.40234l-0.1582,0.88086l0.61328,0.6543l0.3457,0.0625l0.80078,-0.40039l0.1582,-0.88281l-0.61133,-0.6543zM66.97461,32.79883l-0.80078,0.40234l-0.1582,0.88086l0.61133,0.6543l0.34766,0.0625l0.80078,-0.40039l0.1582,-0.88281l-0.61328,-0.6543zM13.02539,33.83594l-0.80078,0.40234l-0.1582,0.88086l0.61328,0.6543l0.3457,0.0625l0.80078,-0.40039l0.1582,-0.88281l-0.61133,-0.6543zM66.97461,36.79883l-0.80078,0.40234l-0.1582,0.88086l0.61133,0.6543l0.34766,0.0625l0.80078,-0.40039l0.1582,-0.88281l-0.61328,-0.6543zM19.02734,37.4707c-0.17208,-0.00137 -0.34161,0.04168 -0.49219,0.125l-11.86914,6.59375c-0.4372,0.16616 -0.70085,0.61315 -0.63477,1.07617v13.18359c-0.00003,0.36373 0.19742,0.6988 0.51563,0.875l11.83984,6.57617l0.00781,0.00586c0.3605,0.28811 0.87132,0.29214 1.23633,0.00977l11.86328,-6.5918c0.31745,-0.17671 0.51409,-0.51168 0.51367,-0.875v-13.12695c0.10434,-0.50106 -0.18645,-1.00003 -0.67383,-1.15625l-11.82812,-6.57031c-0.14652,-0.08107 -0.31106,-0.12405 -0.47852,-0.125zM60.98633,37.4707c-0.17208,-0.00137 -0.34161,0.04168 -0.49219,0.125l-11.87891,6.59766c-0.43174,0.16929 -0.69047,0.61317 -0.625,1.07227v13.18359c-0.00003,0.36373 0.19742,0.6988 0.51563,0.875l11.85742,6.58789c0.36283,0.28364 0.87244,0.28283 1.23438,-0.00195l11.85547,-6.58594c0.3182,-0.1762 0.51565,-0.51127 0.51563,-0.875v-13.13477c0.0997,-0.49899 -0.19116,-0.99329 -0.67578,-1.14844l-11.82812,-6.57031c-0.14652,-0.08107 -0.31106,-0.12405 -0.47852,-0.125zM13.02539,37.83594l-0.80078,0.40234l-0.1582,0.88086l0.61328,0.6543l0.3457,0.0625l0.80078,-0.40039l0.1582,-0.88281l-0.61133,-0.6543zM19.02148,39.61328l9.9082,5.50391l-9.91016,5.36914l-9.9082,-5.36719zM60.98047,39.61328l9.9082,5.50391l-9.91016,5.36914l-9.91016,-5.36914zM71.96875,46.80664v11.05469l-9.98828,5.55078v-11.19336zM8.03125,46.80859l9.98828,5.41211v11.19141l-9.98828,-5.55078zM30.00781,46.80859v11.05273l-9.98828,5.55078v-11.19141zM49.99023,46.80859l9.99023,5.41211v11.19141l-9.99023,-5.55078zM25.95898,64.14844l-0.80273,0.40039l-0.15625,0.88281l0.61133,0.6543l0.34766,0.0625l0.80078,-0.40234l0.1582,-0.88086l-0.61328,-0.6543zM53.8457,64.16016l-0.80078,0.40039l-0.1582,0.88281l0.61328,0.6543l0.3457,0.0625l0.80273,-0.40234l0.15625,-0.88086l-0.61133,-0.6543zM29.44922,66.09961l-0.80078,0.40234l-0.1582,0.88281l0.61328,0.6543l0.3457,0.06055l0.80078,-0.40039l0.1582,-0.88281l-0.61133,-0.6543zM50.36523,66.13086l-0.80078,0.40039l-0.1582,0.88281l0.61328,0.6543l0.3457,0.0625l0.80078,-0.40234l0.1582,-0.88086l-0.61133,-0.6543zM32.94141,68.05273l-0.80078,0.40039l-0.1582,0.88281l0.61133,0.6543l0.34766,0.0625l0.80078,-0.40234l0.1582,-0.88086l-0.61328,-0.6543zM46.88477,68.10156l-0.80078,0.40234l-0.1582,0.88086l0.61133,0.6543l0.34766,0.0625l0.80078,-0.40234l0.1582,-0.88086l-0.61133,-0.6543zM36.43164,70.00391l-0.80078,0.40234l-0.1582,0.88281l0.61328,0.6543l0.3457,0.06055l0.80078,-0.40039l0.1582,-0.88281l-0.61133,-0.6543zM43.4043,70.07227l-0.80078,0.40234l-0.1582,0.88086l0.61133,0.6543l0.34766,0.0625l0.80078,-0.40039l0.1582,-0.88281l-0.61133,-0.6543zM39.92383,71.95703l-0.80078,0.40234l-0.1582,0.88086l0.61133,0.6543l0.34766,0.0625l0.80078,-0.40234l0.1582,-0.88086l-0.61328,-0.6543z"></path></g></g></svg>